# xmcd
#
# Track frame offsets: 
#        150
#        14264
#        26943
#        40124
#        52325
#        66376
#        77156
#        88196
#        100424
#        113815
#        127184
#        142055
#        154603
#        172032
#        186675
#        200751
#
# Disc length: 2909 seconds
#
# Revision: 0
# Processed by: cddbd v1.5.2PL0 Copyright (c) Steve Scherf et al.
# Submitted via: ExactAudioCopy v0.95b4
#
DISCID=fa0b5b10
DTITLE=Dolly Parton - Legends [CD1]
DYEAR=2005
DGENRE=Country
TTITLE0=Coat of Many Colors
TTITLE1=In the Good Old Days (When Times Were Bad)
TTITLE2=Higher and Higher
TTITLE3=Touch Your Women
TTITLE4=My Tennessee Mountain Home
TTITLE5=Love Is Like A Butterfly
TTITLE6=All I Can Do
TTITLE7=Jolene
TTITLE8=I Will Always Love You
TTITLE9=Here You Come Again
TTITLE10=It's All Wrong,But It's All Right
TTITLE11=Elusive Butterfly
TTITLE12=Real Love
TTITLE13=But You Know I Love You
TTITLE14=Just Because I'm A Woman
TTITLE15=One of Those Days
EXTD=
EXTT0=
EXTT1=
EXTT2=
EXTT3=
EXTT4=
EXTT5=
EXTT6=
EXTT7=
EXTT8=
EXTT9=
EXTT10=
EXTT11=
EXTT12=
EXTT13=
EXTT14=
EXTT15=
PLAYORDER=
